<mxfile host="app.diagrams.net" modified="2024-05-09T04:32:27.092Z" agent="Mozilla/5.0 (Windows NT 10.0; Win64; x64) AppleWebKit/537.36 (KHTML, like Gecko) Chrome/121.0.0.0 Safari/537.36 OPR/107.0.0.0" etag="3C92EmjFSF8skrAtQApz" version="24.3.1" type="google">
  <diagram name="Page-1" id="z4bVFm13iegyjinyYMxW">
    <mxGraphModel grid="1" page="1" gridSize="10" guides="1" tooltips="1" connect="1" arrows="1" fold="1" pageScale="1" pageWidth="850" pageHeight="1100" math="0" shadow="0">
      <root>
        <mxCell id="0" />
        <mxCell id="1" parent="0" />
        <mxCell id="IHgsMJMbLqcfS5eTaFf3-1" value="solutionsArchitectureDwinzo2.0" style="text;strokeColor=none;fillColor=none;html=1;fontSize=24;fontStyle=1;verticalAlign=middle;align=center;" vertex="1" parent="1">
          <mxGeometry x="-850" y="-1090" width="370" height="20" as="geometry" />
        </mxCell>
        <mxCell id="IHgsMJMbLqcfS5eTaFf3-40" value="1) AUTHENTICATION &amp;amp; AUTHORIZATION&amp;nbsp;&lt;div&gt;&lt;span style=&quot;font-weight: normal;&quot;&gt;Current Design&amp;nbsp;&lt;/span&gt;&lt;/div&gt;" style="swimlane;horizontal=0;whiteSpace=wrap;html=1;startSize=40;" vertex="1" parent="1">
          <mxGeometry x="-760" y="-1000" width="1360" height="360" as="geometry" />
        </mxCell>
        <mxCell id="IHgsMJMbLqcfS5eTaFf3-70" value="" style="edgeStyle=orthogonalEdgeStyle;rounded=0;orthogonalLoop=1;jettySize=auto;html=1;" edge="1" parent="IHgsMJMbLqcfS5eTaFf3-40">
          <mxGeometry relative="1" as="geometry">
            <mxPoint x="865" y="169.42857142857156" as="sourcePoint" />
          </mxGeometry>
        </mxCell>
        <mxCell id="IHgsMJMbLqcfS5eTaFf3-48" value="&lt;font style=&quot;font-size: 14px;&quot;&gt;&lt;b&gt;verify&lt;/b&gt;(request)&lt;/font&gt;&lt;div&gt;&lt;font size=&quot;3&quot;&gt;&quot;username&quot;: rithish&lt;/font&gt;&lt;/div&gt;&lt;div&gt;&lt;font size=&quot;3&quot;&gt;&quot;password&quot;: 123456&lt;/font&gt;&lt;/div&gt;" style="whiteSpace=wrap;html=1;strokeColor=#666666;strokeWidth=1;shadow=0;dashed=0;align=left;" vertex="1" parent="IHgsMJMbLqcfS5eTaFf3-40">
          <mxGeometry x="690" y="70" width="150" height="68.5" as="geometry" />
        </mxCell>
        <mxCell id="IHgsMJMbLqcfS5eTaFf3-25" value="USER" style="sketch=0;outlineConnect=0;fontColor=#232F3E;gradientColor=none;fillColor=#232F3D;strokeColor=none;dashed=0;verticalLabelPosition=bottom;verticalAlign=top;align=center;html=1;fontSize=12;fontStyle=0;aspect=fixed;pointerEvents=1;shape=mxgraph.aws4.user;" vertex="1" parent="IHgsMJMbLqcfS5eTaFf3-40">
          <mxGeometry x="80" y="40" width="40" height="40" as="geometry" />
        </mxCell>
        <mxCell id="y3_AkyGFKerVFW_caFqs-35" style="edgeStyle=orthogonalEdgeStyle;rounded=0;orthogonalLoop=1;jettySize=auto;html=1;entryX=0;entryY=0.5;entryDx=0;entryDy=0;" edge="1" parent="IHgsMJMbLqcfS5eTaFf3-40" source="y3_AkyGFKerVFW_caFqs-1" target="y3_AkyGFKerVFW_caFqs-3">
          <mxGeometry relative="1" as="geometry" />
        </mxCell>
        <mxCell id="y3_AkyGFKerVFW_caFqs-1" value="&lt;b&gt;&lt;font style=&quot;font-size: 14px;&quot;&gt;CLIENT&lt;/font&gt;&lt;/b&gt;" style="rounded=0;whiteSpace=wrap;html=1;" vertex="1" parent="IHgsMJMbLqcfS5eTaFf3-40">
          <mxGeometry x="120" y="41.5" width="80" height="38.5" as="geometry" />
        </mxCell>
        <mxCell id="y3_AkyGFKerVFW_caFqs-3" value="&lt;b&gt;&lt;font style=&quot;font-size: 14px;&quot;&gt;IAM&amp;nbsp;&lt;/font&gt;&lt;/b&gt;&lt;div&gt;&lt;font size=&quot;3&quot;&gt;(RBAC)&lt;/font&gt;&lt;/div&gt;" style="rounded=1;whiteSpace=wrap;html=1;" vertex="1" parent="IHgsMJMbLqcfS5eTaFf3-40">
          <mxGeometry x="510" y="29" width="120" height="60" as="geometry" />
        </mxCell>
        <mxCell id="y3_AkyGFKerVFW_caFqs-5" value="AUTH REQUEST" style="shape=table;startSize=22;container=1;collapsible=0;childLayout=tableLayout;fontStyle=1" vertex="1" parent="IHgsMJMbLqcfS5eTaFf3-40">
          <mxGeometry x="235" y="77.6" width="235" height="262.4" as="geometry" />
        </mxCell>
        <mxCell id="y3_AkyGFKerVFW_caFqs-6" value="" style="shape=tableRow;horizontal=0;startSize=0;swimlaneHead=0;swimlaneBody=0;strokeColor=inherit;top=0;left=0;bottom=0;right=0;collapsible=0;dropTarget=0;fillColor=none;points=[[0,0.5],[1,0.5]];portConstraint=eastwest;" vertex="1" parent="y3_AkyGFKerVFW_caFqs-5">
          <mxGeometry y="22" width="235" height="120" as="geometry" />
        </mxCell>
        <mxCell id="y3_AkyGFKerVFW_caFqs-7" value="&lt;font style=&quot;font-size: 14px;&quot;&gt;POST / sign up&lt;/font&gt;&lt;div&gt;&lt;font size=&quot;3&quot;&gt;&lt;b&gt;request&lt;/b&gt;:&lt;/font&gt;&lt;/div&gt;&lt;div&gt;&lt;font size=&quot;3&quot;&gt;username: rithish&lt;/font&gt;&lt;/div&gt;&lt;div&gt;&lt;font size=&quot;3&quot;&gt;email: rithish@hexrfactory.com&lt;/font&gt;&lt;/div&gt;&lt;div&gt;&lt;font size=&quot;3&quot;&gt;password: 123456&lt;/font&gt;&lt;/div&gt;&lt;div&gt;&lt;font size=&quot;3&quot;&gt;(third party auth)&lt;/font&gt;&lt;/div&gt;" style="shape=partialRectangle;html=1;whiteSpace=wrap;connectable=0;strokeColor=inherit;overflow=hidden;fillColor=none;top=0;left=0;bottom=0;right=0;pointerEvents=1;align=left;" vertex="1" parent="y3_AkyGFKerVFW_caFqs-6">
          <mxGeometry width="235" height="120" as="geometry">
            <mxRectangle width="235" height="120" as="alternateBounds" />
          </mxGeometry>
        </mxCell>
        <mxCell id="y3_AkyGFKerVFW_caFqs-8" value="" style="shape=tableRow;horizontal=0;startSize=0;swimlaneHead=0;swimlaneBody=0;strokeColor=inherit;top=0;left=0;bottom=0;right=0;collapsible=0;dropTarget=0;fillColor=none;points=[[0,0.5],[1,0.5]];portConstraint=eastwest;" vertex="1" parent="y3_AkyGFKerVFW_caFqs-5">
          <mxGeometry y="142" width="235" height="120" as="geometry" />
        </mxCell>
        <mxCell id="y3_AkyGFKerVFW_caFqs-9" value="&lt;div style=&quot;text-align: left;&quot;&gt;&lt;span style=&quot;font-size: 14px; background-color: initial;&quot;&gt;POST / log in&lt;/span&gt;&lt;/div&gt;&lt;div style=&quot;text-align: left;&quot;&gt;&lt;font size=&quot;3&quot;&gt;&lt;b&gt;request&lt;/b&gt;:&lt;/font&gt;&lt;/div&gt;&lt;div style=&quot;text-align: left;&quot;&gt;&lt;font size=&quot;3&quot;&gt;username: rithish&lt;/font&gt;&lt;/div&gt;&lt;div style=&quot;text-align: left;&quot;&gt;&lt;font size=&quot;3&quot;&gt;email: rithish@hexrfactory.com&lt;/font&gt;&lt;/div&gt;&lt;div style=&quot;text-align: left;&quot;&gt;&lt;font size=&quot;3&quot;&gt;password: 123456&lt;/font&gt;&lt;/div&gt;&lt;div style=&quot;text-align: left;&quot;&gt;&lt;font size=&quot;3&quot;&gt;(third party auth)&lt;/font&gt;&lt;/div&gt;" style="shape=partialRectangle;html=1;whiteSpace=wrap;connectable=0;strokeColor=inherit;overflow=hidden;fillColor=none;top=0;left=0;bottom=0;right=0;pointerEvents=1;" vertex="1" parent="y3_AkyGFKerVFW_caFqs-8">
          <mxGeometry width="235" height="120" as="geometry">
            <mxRectangle width="235" height="120" as="alternateBounds" />
          </mxGeometry>
        </mxCell>
        <mxCell id="y3_AkyGFKerVFW_caFqs-17" style="edgeStyle=orthogonalEdgeStyle;rounded=0;orthogonalLoop=1;jettySize=auto;html=1;" edge="1" parent="IHgsMJMbLqcfS5eTaFf3-40" source="y3_AkyGFKerVFW_caFqs-13" target="y3_AkyGFKerVFW_caFqs-16">
          <mxGeometry relative="1" as="geometry" />
        </mxCell>
        <mxCell id="y3_AkyGFKerVFW_caFqs-13" value="&lt;b&gt;Auth DB&lt;/b&gt;&lt;div&gt;service: MongoDB&lt;/div&gt;" style="shape=cylinder3;whiteSpace=wrap;html=1;boundedLbl=1;backgroundOutline=1;size=15;" vertex="1" parent="IHgsMJMbLqcfS5eTaFf3-40">
          <mxGeometry x="870" y="10" width="115" height="98" as="geometry" />
        </mxCell>
        <mxCell id="y3_AkyGFKerVFW_caFqs-14" style="edgeStyle=orthogonalEdgeStyle;rounded=0;orthogonalLoop=1;jettySize=auto;html=1;entryX=0;entryY=0.5;entryDx=0;entryDy=0;entryPerimeter=0;" edge="1" parent="IHgsMJMbLqcfS5eTaFf3-40" source="y3_AkyGFKerVFW_caFqs-3" target="y3_AkyGFKerVFW_caFqs-13">
          <mxGeometry relative="1" as="geometry">
            <Array as="points">
              <mxPoint x="760" y="62" />
              <mxPoint x="760" y="60" />
            </Array>
          </mxGeometry>
        </mxCell>
        <mxCell id="y3_AkyGFKerVFW_caFqs-16" value="Application" style="sketch=0;outlineConnect=0;fontColor=#232F3E;gradientColor=none;strokeColor=#232F3E;fillColor=#ffffff;dashed=0;verticalLabelPosition=bottom;verticalAlign=top;align=center;html=1;fontSize=12;fontStyle=0;aspect=fixed;shape=mxgraph.aws4.resourceIcon;resIcon=mxgraph.aws4.application;shadow=1;" vertex="1" parent="IHgsMJMbLqcfS5eTaFf3-40">
          <mxGeometry x="1270" y="26.5" width="65" height="65" as="geometry" />
        </mxCell>
        <mxCell id="y3_AkyGFKerVFW_caFqs-18" value="&lt;span style=&quot;font-size: 14px;&quot;&gt;&lt;b&gt;content-type: application/ json&lt;/b&gt;&lt;/span&gt;&lt;div&gt;&lt;span style=&quot;font-size: 14px;&quot;&gt;&lt;b&gt;mode: no cors&lt;/b&gt;&lt;/span&gt;&lt;/div&gt;&lt;div&gt;&lt;span style=&quot;font-size: 14px;&quot;&gt;&lt;b&gt;response:{&lt;/b&gt;&lt;/span&gt;&lt;/div&gt;&lt;div&gt;&lt;span style=&quot;font-size: 14px;&quot;&gt;&quot;&lt;/span&gt;&lt;span style=&quot;font-size: 14px;&quot;&gt;authentication&lt;/span&gt;&lt;span style=&quot;font-size: 14px;&quot;&gt;&quot;: &quot;&lt;/span&gt;&lt;span style=&quot;font-size: 14px;&quot;&gt;true&quot;&lt;/span&gt;&lt;/div&gt;&lt;div&gt;&lt;span style=&quot;font-size: 14px;&quot;&gt;&quot;username&quot;: &quot;&lt;/span&gt;&lt;span style=&quot;font-size: 14px;&quot;&gt;rithish&quot;&lt;/span&gt;&lt;/div&gt;&lt;div&gt;&lt;span style=&quot;font-size: 14px;&quot;&gt;&quot;apiKey&quot;: &quot;&lt;/span&gt;&lt;span style=&quot;font-size: 14px;&quot;&gt;lfkdncvsa&lt;/span&gt;&lt;span style=&quot;font-size: 14px;&quot;&gt;...&quot;&lt;/span&gt;&lt;/div&gt;" style="whiteSpace=wrap;html=1;strokeColor=#666666;strokeWidth=1;shadow=0;dashed=0;align=left;" vertex="1" parent="IHgsMJMbLqcfS5eTaFf3-40">
          <mxGeometry x="1020" y="70" width="215" height="112.4" as="geometry" />
        </mxCell>
        <mxCell id="IHgsMJMbLqcfS5eTaFf3-159" value="1) Login Microservice Architecture" style="text;strokeColor=none;fillColor=none;html=1;fontSize=24;fontStyle=1;verticalAlign=middle;align=center;" vertex="1" parent="1">
          <mxGeometry x="-830" y="-1060" width="370" height="20" as="geometry" />
        </mxCell>
        <mxCell id="IHgsMJMbLqcfS5eTaFf3-160" value="User Section&amp;nbsp;&lt;div&gt;Microservice Architecture&lt;span style=&quot;background-color: initial;&quot;&gt;(Organization)&lt;/span&gt;&lt;/div&gt;" style="text;strokeColor=none;fillColor=none;html=1;fontSize=24;fontStyle=1;verticalAlign=middle;align=left;" vertex="1" parent="1">
          <mxGeometry x="-830" y="660" width="490" height="20" as="geometry" />
        </mxCell>
        <mxCell id="IHgsMJMbLqcfS5eTaFf3-258" value="Organization Section Homepage Microservices Architecture&amp;nbsp;" style="swimlane;horizontal=0;whiteSpace=wrap;html=1;" vertex="1" collapsed="1" parent="1">
          <mxGeometry x="-740" y="700" width="40" height="350" as="geometry">
            <mxRectangle x="-760" y="1490" width="2400" height="1790" as="alternateBounds" />
          </mxGeometry>
        </mxCell>
        <mxCell id="IHgsMJMbLqcfS5eTaFf3-174" value="" style="strokeWidth=1;shadow=0;dashed=0;align=center;html=1;shape=mxgraph.mockup.containers.browserWindow;rSize=0;strokeColor=#666666;strokeColor2=#008cff;strokeColor3=#c4c4c4;mainText=,;recursiveResize=0;" vertex="1" parent="IHgsMJMbLqcfS5eTaFf3-258">
          <mxGeometry x="40" y="20" width="510" height="390" as="geometry" />
        </mxCell>
        <mxCell id="35Xw9IBwaOjaMdfY4VeK-5" value="" style="shape=ellipse;html=1;dashed=0;whiteSpace=wrap;aspect=fixed;strokeWidth=5;perimeter=ellipsePerimeter;" vertex="1" parent="IHgsMJMbLqcfS5eTaFf3-174">
          <mxGeometry x="14.379999999999995" y="350" width="33" height="33" as="geometry" />
        </mxCell>
        <mxCell id="IHgsMJMbLqcfS5eTaFf3-176" value="" style="shape=ellipse;html=1;dashed=0;whiteSpace=wrap;aspect=fixed;strokeWidth=5;perimeter=ellipsePerimeter;" vertex="1" parent="IHgsMJMbLqcfS5eTaFf3-174">
          <mxGeometry x="12.38" y="263" width="33" height="33" as="geometry" />
        </mxCell>
        <mxCell id="IHgsMJMbLqcfS5eTaFf3-177" value="" style="shape=ellipse;html=1;dashed=0;whiteSpace=wrap;aspect=fixed;strokeWidth=5;perimeter=ellipsePerimeter;" vertex="1" parent="IHgsMJMbLqcfS5eTaFf3-174">
          <mxGeometry x="12.63" y="177" width="33" height="33" as="geometry" />
        </mxCell>
        <mxCell id="IHgsMJMbLqcfS5eTaFf3-178" value="Page 1" style="strokeWidth=1;shadow=0;dashed=0;align=center;html=1;shape=mxgraph.mockup.containers.anchor;fontSize=17;fontColor=#666666;align=left;whiteSpace=wrap;" vertex="1" parent="IHgsMJMbLqcfS5eTaFf3-174">
          <mxGeometry x="60" y="12" width="110" height="26" as="geometry" />
        </mxCell>
        <mxCell id="IHgsMJMbLqcfS5eTaFf3-179" value="https://www.draw.io" style="strokeWidth=1;shadow=0;dashed=0;align=center;html=1;shape=mxgraph.mockup.containers.anchor;rSize=0;fontSize=17;fontColor=#666666;align=left;" vertex="1" parent="IHgsMJMbLqcfS5eTaFf3-174">
          <mxGeometry x="130" y="60" width="250" height="26" as="geometry" />
        </mxCell>
        <mxCell id="IHgsMJMbLqcfS5eTaFf3-180" value="" style="html=1;shadow=0;dashed=0;fillColor=#E3F3FD;strokeColor=none;fontSize=16;fontColor=#161819;align=left;spacing=15;" vertex="1" parent="IHgsMJMbLqcfS5eTaFf3-174">
          <mxGeometry y="110" width="510" height="60" as="geometry" />
        </mxCell>
        <mxCell id="IHgsMJMbLqcfS5eTaFf3-181" value="&lt;font style=&quot;font-size: 18px;&quot;&gt;&lt;b&gt;ORG NAME&lt;/b&gt;&lt;/font&gt;" style="text;html=1;align=left;verticalAlign=middle;whiteSpace=wrap;rounded=0;" vertex="1" parent="IHgsMJMbLqcfS5eTaFf3-180">
          <mxGeometry x="7.555555555555555" width="40.8" height="60" as="geometry" />
        </mxCell>
        <mxCell id="IHgsMJMbLqcfS5eTaFf3-218" value="" style="shape=image;html=1;verticalAlign=top;verticalLabelPosition=bottom;labelBackgroundColor=#ffffff;imageAspect=0;aspect=fixed;image=https://cdn4.iconfinder.com/data/icons/essential-app-2/16/app-tile-block-menu-setting-128.png" vertex="1" parent="IHgsMJMbLqcfS5eTaFf3-180">
          <mxGeometry x="367.3227777777778" y="6.960000000000022" width="43.510555555555555" height="43.510555555555555" as="geometry" />
        </mxCell>
        <mxCell id="IHgsMJMbLqcfS5eTaFf3-219" value="" style="shape=image;html=1;verticalAlign=top;verticalLabelPosition=bottom;labelBackgroundColor=#ffffff;imageAspect=0;aspect=fixed;image=https://cdn0.iconfinder.com/data/icons/google-material-design-3-0/48/ic_account_circle_48px-128.png" vertex="1" parent="IHgsMJMbLqcfS5eTaFf3-180">
          <mxGeometry x="450" y="-1.2800000000000011" width="60" height="60" as="geometry" />
        </mxCell>
        <mxCell id="IHgsMJMbLqcfS5eTaFf3-194" value="" style="image;aspect=fixed;perimeter=ellipsePerimeter;html=1;align=center;shadow=0;dashed=0;fontColor=#4277BB;labelBackgroundColor=default;fontSize=12;spacingTop=3;image=img/lib/ibm/infrastructure/dashboard.svg;" vertex="1" parent="IHgsMJMbLqcfS5eTaFf3-174">
          <mxGeometry x="12.630000000000003" y="177" width="33" height="33" as="geometry" />
        </mxCell>
        <mxCell id="IHgsMJMbLqcfS5eTaFf3-195" value="" style="shape=ellipse;html=1;dashed=0;whiteSpace=wrap;aspect=fixed;strokeWidth=5;perimeter=ellipsePerimeter;" vertex="1" parent="IHgsMJMbLqcfS5eTaFf3-174">
          <mxGeometry x="10.38" y="218.5" width="37" height="37" as="geometry" />
        </mxCell>
        <mxCell id="IHgsMJMbLqcfS5eTaFf3-196" value="" style="shape=image;html=1;verticalAlign=top;verticalLabelPosition=bottom;labelBackgroundColor=#ffffff;imageAspect=0;aspect=fixed;image=https://cdn1.iconfinder.com/data/icons/Vista-Inspirate_1.0/128x128/apps/advancedsettings.png" vertex="1" parent="IHgsMJMbLqcfS5eTaFf3-174">
          <mxGeometry x="15.129999999999999" y="223.25" width="27.5" height="27.5" as="geometry" />
        </mxCell>
        <mxCell id="IHgsMJMbLqcfS5eTaFf3-197" value="" style="image;aspect=fixed;html=1;points=[];align=center;fontSize=12;image=img/lib/azure2/azure_stack/Plans.svg;" vertex="1" parent="IHgsMJMbLqcfS5eTaFf3-174">
          <mxGeometry x="21.16" y="270" width="15.44" height="19" as="geometry" />
        </mxCell>
        <mxCell id="IHgsMJMbLqcfS5eTaFf3-200" value="" style="shape=image;html=1;verticalAlign=top;verticalLabelPosition=bottom;labelBackgroundColor=#ffffff;imageAspect=0;aspect=fixed;image=https://cdn0.iconfinder.com/data/icons/evericons-24px-vol-1/24/settings-128.png" vertex="1" parent="IHgsMJMbLqcfS5eTaFf3-174">
          <mxGeometry x="19" y="354.62" width="24.38" height="24.38" as="geometry" />
        </mxCell>
        <mxCell id="IHgsMJMbLqcfS5eTaFf3-211" value="&lt;b&gt;Dashboard&lt;/b&gt;" style="rounded=1;arcSize=10;fillColor=#172B4D;strokeColor=none;html=1;fontSize=11;align=center;fontColor=#ffffff;fontStyle=0;fontSize=11;sketch=0;" vertex="1" parent="IHgsMJMbLqcfS5eTaFf3-174">
          <mxGeometry x="51.95" y="182.25" width="88.05" height="27.75" as="geometry" />
        </mxCell>
        <mxCell id="IHgsMJMbLqcfS5eTaFf3-220" value="" style="html=1;shadow=0;dashed=0;shape=mxgraph.bootstrap.rrect;rSize=5;fillColor=#ffffff;strokeColor=#999999;" vertex="1" parent="IHgsMJMbLqcfS5eTaFf3-174">
          <mxGeometry x="400" y="165" width="110" height="125" as="geometry" />
        </mxCell>
        <mxCell id="IHgsMJMbLqcfS5eTaFf3-221" value="             Name&#xa;             Mail ID" style="fillColor=none;strokeColor=none;align=left;spacing=20;fontSize=12;fontColor=#757E85;fontStyle=1;" vertex="1" parent="IHgsMJMbLqcfS5eTaFf3-220">
          <mxGeometry width="110" height="30" relative="1" as="geometry">
            <mxPoint y="10" as="offset" />
          </mxGeometry>
        </mxCell>
        <mxCell id="IHgsMJMbLqcfS5eTaFf3-222" value="Save" style="fillColor=none;strokeColor=none;align=left;spacing=20;fontSize=14;" vertex="1" parent="IHgsMJMbLqcfS5eTaFf3-220">
          <mxGeometry width="110" height="30" relative="1" as="geometry">
            <mxPoint y="40" as="offset" />
          </mxGeometry>
        </mxCell>
        <mxCell id="IHgsMJMbLqcfS5eTaFf3-223" value="User Control" style="fillColor=none;strokeColor=none;align=left;spacing=20;fontSize=14;" vertex="1" parent="IHgsMJMbLqcfS5eTaFf3-220">
          <mxGeometry width="110" height="30" relative="1" as="geometry">
            <mxPoint y="70" as="offset" />
          </mxGeometry>
        </mxCell>
        <mxCell id="IHgsMJMbLqcfS5eTaFf3-224" value="" style="shape=image;html=1;verticalAlign=top;verticalLabelPosition=bottom;labelBackgroundColor=#ffffff;imageAspect=0;aspect=fixed;image=https://cdn0.iconfinder.com/data/icons/google-material-design-3-0/48/ic_account_circle_48px-128.png" vertex="1" parent="IHgsMJMbLqcfS5eTaFf3-220">
          <mxGeometry x="20" y="2.6785714285714284" width="33.035714285714285" height="33.035714285714285" as="geometry" />
        </mxCell>
        <mxCell id="IHgsMJMbLqcfS5eTaFf3-225" value="Log Out" style="fillColor=none;strokeColor=none;align=left;spacing=20;fontSize=14;" vertex="1" parent="IHgsMJMbLqcfS5eTaFf3-220">
          <mxGeometry y="96.1549175824176" width="90.58823529411765" height="28.846153846153847" as="geometry" />
        </mxCell>
        <mxCell id="35Xw9IBwaOjaMdfY4VeK-4" value="" style="shape=ellipse;html=1;dashed=0;whiteSpace=wrap;aspect=fixed;strokeWidth=5;perimeter=ellipsePerimeter;" vertex="1" parent="IHgsMJMbLqcfS5eTaFf3-174">
          <mxGeometry x="12.629999999999995" y="307" width="33" height="33" as="geometry" />
        </mxCell>
        <mxCell id="IHgsMJMbLqcfS5eTaFf3-198" value="" style="sketch=0;outlineConnect=0;fontColor=#232F3E;gradientColor=none;fillColor=#DD344C;strokeColor=none;dashed=0;verticalLabelPosition=bottom;verticalAlign=top;align=center;html=1;fontSize=12;fontStyle=0;aspect=fixed;shape=mxgraph.aws4.location_service_track;" vertex="1" parent="IHgsMJMbLqcfS5eTaFf3-174">
          <mxGeometry x="20" y="313.62" width="19.38" height="19.38" as="geometry" />
        </mxCell>
        <mxCell id="35Xw9IBwaOjaMdfY4VeK-9" value="&lt;b&gt;Settings&lt;/b&gt;" style="rounded=1;arcSize=10;fillColor=#172B4D;strokeColor=none;html=1;fontSize=11;align=center;fontColor=#ffffff;fontStyle=0;fontSize=11;sketch=0;" vertex="1" parent="IHgsMJMbLqcfS5eTaFf3-174">
          <mxGeometry x="51.950000000000045" y="350" width="88.05" height="27.75" as="geometry" />
        </mxCell>
        <mxCell id="35Xw9IBwaOjaMdfY4VeK-8" value="&lt;b&gt;Track&lt;/b&gt;" style="rounded=1;arcSize=10;fillColor=#172B4D;strokeColor=none;html=1;fontSize=11;align=center;fontColor=#ffffff;fontStyle=0;fontSize=11;sketch=0;" vertex="1" parent="IHgsMJMbLqcfS5eTaFf3-174">
          <mxGeometry x="51.950000000000045" y="307.00000000000006" width="88.05" height="27.75" as="geometry" />
        </mxCell>
        <mxCell id="35Xw9IBwaOjaMdfY4VeK-7" value="&lt;b&gt;Plan&lt;/b&gt;" style="rounded=1;arcSize=10;fillColor=#172B4D;strokeColor=none;html=1;fontSize=11;align=center;fontColor=#ffffff;fontStyle=0;fontSize=11;sketch=0;" vertex="1" parent="IHgsMJMbLqcfS5eTaFf3-174">
          <mxGeometry x="51.950000000000045" y="265.6200000000001" width="88.05" height="27.75" as="geometry" />
        </mxCell>
        <mxCell id="35Xw9IBwaOjaMdfY4VeK-6" value="&lt;b&gt;Setup&lt;/b&gt;" style="rounded=1;arcSize=10;fillColor=#172B4D;strokeColor=none;html=1;fontSize=11;align=center;fontColor=#ffffff;fontStyle=0;fontSize=11;sketch=0;" vertex="1" parent="IHgsMJMbLqcfS5eTaFf3-174">
          <mxGeometry x="51.950000000000045" y="223.25" width="88.05" height="27.75" as="geometry" />
        </mxCell>
        <mxCell id="35Xw9IBwaOjaMdfY4VeK-10" value="" style="group" connectable="0" vertex="1" parent="IHgsMJMbLqcfS5eTaFf3-174">
          <mxGeometry x="234" y="166" width="165" height="63.5" as="geometry" />
        </mxCell>
        <mxCell id="IHgsMJMbLqcfS5eTaFf3-226" value="" style="html=1;shadow=0;dashed=0;shape=mxgraph.bootstrap.rrect;rSize=5;fillColor=#ffffff;strokeColor=#999999;" vertex="1" parent="35Xw9IBwaOjaMdfY4VeK-10">
          <mxGeometry y="1" width="165" height="62.5" as="geometry" />
        </mxCell>
        <mxCell id="IHgsMJMbLqcfS5eTaFf3-227" value="dwinzo" style="sketch=0;outlineConnect=0;fontColor=#232F3E;gradientColor=none;strokeColor=#232F3E;fillColor=#ffffff;dashed=0;verticalLabelPosition=bottom;verticalAlign=top;align=center;html=1;fontSize=12;fontStyle=0;aspect=fixed;shape=mxgraph.aws4.resourceIcon;resIcon=mxgraph.aws4.application;" vertex="1" parent="35Xw9IBwaOjaMdfY4VeK-10">
          <mxGeometry y="1" width="40" height="40" as="geometry" />
        </mxCell>
        <mxCell id="IHgsMJMbLqcfS5eTaFf3-228" value="&lt;b&gt;organization&lt;/b&gt;" style="sketch=0;outlineConnect=0;fontColor=#232F3E;gradientColor=none;fillColor=#232F3D;strokeColor=none;dashed=0;verticalLabelPosition=bottom;verticalAlign=top;align=center;html=1;fontSize=12;fontStyle=0;aspect=fixed;pointerEvents=1;shape=mxgraph.aws4.office_building;" vertex="1" parent="35Xw9IBwaOjaMdfY4VeK-10">
          <mxGeometry x="69.68" width="25.64" height="40" as="geometry" />
        </mxCell>
        <mxCell id="IHgsMJMbLqcfS5eTaFf3-229" value="Coming&lt;div&gt;soon&lt;/div&gt;" style="text;html=1;align=center;verticalAlign=middle;whiteSpace=wrap;rounded=0;" vertex="1" parent="35Xw9IBwaOjaMdfY4VeK-10">
          <mxGeometry x="105" y="7" width="60" height="30" as="geometry" />
        </mxCell>
        <mxCell id="IHgsMJMbLqcfS5eTaFf3-272" value="" style="group" connectable="0" vertex="1" parent="IHgsMJMbLqcfS5eTaFf3-258">
          <mxGeometry x="60" y="570" width="350" height="245" as="geometry" />
        </mxCell>
        <mxCell id="IHgsMJMbLqcfS5eTaFf3-274" value="" style="edgeStyle=elbowEdgeStyle;rounded=0;orthogonalLoop=1;jettySize=auto;html=1;" edge="1" parent="IHgsMJMbLqcfS5eTaFf3-272" source="IHgsMJMbLqcfS5eTaFf3-275" target="IHgsMJMbLqcfS5eTaFf3-279">
          <mxGeometry relative="1" as="geometry" />
        </mxCell>
        <mxCell id="IHgsMJMbLqcfS5eTaFf3-275" value="React" style="shape=image;html=1;verticalAlign=top;verticalLabelPosition=bottom;labelBackgroundColor=#ffffff;imageAspect=0;aspect=fixed;image=https://cdn1.iconfinder.com/data/icons/ionicons-fill-vol-2/512/logo-react-128.png" vertex="1" parent="IHgsMJMbLqcfS5eTaFf3-272">
          <mxGeometry x="10" y="-30.625" width="22.5" height="22.5" as="geometry" />
        </mxCell>
        <mxCell id="IHgsMJMbLqcfS5eTaFf3-276" value="" style="group" connectable="0" vertex="1" parent="IHgsMJMbLqcfS5eTaFf3-272">
          <mxGeometry y="30.625" width="70" height="61.25" as="geometry" />
        </mxCell>
        <mxCell id="IHgsMJMbLqcfS5eTaFf3-277" value="&lt;div&gt;&lt;br&gt;&lt;/div&gt;&amp;nbsp; 3JS" style="rounded=0;whiteSpace=wrap;html=1;" vertex="1" parent="IHgsMJMbLqcfS5eTaFf3-276">
          <mxGeometry x="10" width="34.72" height="35" as="geometry" />
        </mxCell>
        <mxCell id="IHgsMJMbLqcfS5eTaFf3-278" value="ThreeJS" style="text;html=1;align=center;verticalAlign=middle;resizable=0;points=[];autosize=1;strokeColor=none;fillColor=none;" vertex="1" parent="IHgsMJMbLqcfS5eTaFf3-276">
          <mxGeometry y="35" width="70" height="30" as="geometry" />
        </mxCell>
        <mxCell id="IHgsMJMbLqcfS5eTaFf3-279" value="&lt;span style=&quot;text-wrap: nowrap; background-color: rgb(251, 251, 251);&quot;&gt;Cache / Static UI files of each&lt;/span&gt;&lt;br&gt;&lt;div&gt;&lt;div&gt;presenting&amp;nbsp;&lt;/div&gt;&lt;/div&gt;&lt;div&gt;Navbar and the Menu options&lt;/div&gt;&lt;div&gt;under Organization&lt;/div&gt;" style="whiteSpace=wrap;html=1;verticalAlign=top;labelBackgroundColor=#ffffff;" vertex="1" parent="IHgsMJMbLqcfS5eTaFf3-272">
          <mxGeometry x="90" y="-30.625" width="210" height="70" as="geometry" />
        </mxCell>
        <mxCell id="IHgsMJMbLqcfS5eTaFf3-280" value="" style="edgeStyle=elbowEdgeStyle;rounded=0;orthogonalLoop=1;jettySize=auto;html=1;" edge="1" parent="IHgsMJMbLqcfS5eTaFf3-272" source="IHgsMJMbLqcfS5eTaFf3-277">
          <mxGeometry relative="1" as="geometry">
            <mxPoint x="90" y="56.875" as="targetPoint" />
          </mxGeometry>
        </mxCell>
        <mxCell id="IHgsMJMbLqcfS5eTaFf3-281" value="For 3D Visualization" style="rounded=0;whiteSpace=wrap;html=1;" vertex="1" parent="IHgsMJMbLqcfS5eTaFf3-272">
          <mxGeometry x="89" y="45.5" width="211" height="37.625" as="geometry" />
        </mxCell>
        <mxCell id="IHgsMJMbLqcfS5eTaFf3-282" style="edgeStyle=orthogonalEdgeStyle;rounded=0;orthogonalLoop=1;jettySize=auto;html=1;entryX=0.157;entryY=1;entryDx=0;entryDy=0;entryPerimeter=0;" edge="1" parent="IHgsMJMbLqcfS5eTaFf3-272" source="IHgsMJMbLqcfS5eTaFf3-279">
          <mxGeometry relative="1" as="geometry">
            <mxPoint x="66" y="-170.625" as="targetPoint" />
          </mxGeometry>
        </mxCell>
        <object placeholders="1" c4Name="DWinzo Home UI Container - Organization" c4Type="ContainerScopeBoundary" c4Application="DWinzo Container: Priority Top" label="&lt;font style=&quot;font-size: 16px&quot;&gt;&lt;b&gt;&lt;div style=&quot;text-align: left&quot;&gt;%c4Name%&lt;/div&gt;&lt;/b&gt;&lt;/font&gt;&lt;div style=&quot;text-align: left&quot;&gt;[%c4Application%]&lt;/div&gt;" id="IHgsMJMbLqcfS5eTaFf3-273">
          <mxCell style="rounded=1;fontSize=11;whiteSpace=wrap;html=1;dashed=1;arcSize=20;fillColor=none;strokeColor=#666666;fontColor=#333333;labelBackgroundColor=none;align=left;verticalAlign=bottom;labelBorderColor=none;spacingTop=0;spacing=10;dashPattern=8 4;metaEdit=1;rotatable=0;perimeter=rectanglePerimeter;noLabel=0;labelPadding=0;allowArrows=0;connectable=0;expand=0;recursiveResize=0;editable=1;pointerEvents=0;absoluteArcSize=1;points=[[0.25,0,0],[0.5,0,0],[0.75,0,0],[1,0.25,0],[1,0.5,0],[1,0.75,0],[0.75,1,0],[0.5,1,0],[0.25,1,0],[0,0.75,0],[0,0.5,0],[0,0.25,0]];" vertex="1" parent="IHgsMJMbLqcfS5eTaFf3-272">
            <mxGeometry x="10" y="-30.625" width="340" height="245" as="geometry" />
          </mxCell>
        </object>
        <mxCell id="IHgsMJMbLqcfS5eTaFf3-283" value="Home Page - ORGANIZATION -  Common Pods, Priority: Below Top" style="shape=table;startSize=40;container=1;collapsible=0;childLayout=tableLayout;" vertex="1" parent="IHgsMJMbLqcfS5eTaFf3-258">
          <mxGeometry x="70" y="815" width="1900" height="390" as="geometry" />
        </mxCell>
        <mxCell id="IHgsMJMbLqcfS5eTaFf3-284" value="" style="shape=tableRow;horizontal=0;startSize=0;swimlaneHead=0;swimlaneBody=0;strokeColor=inherit;top=0;left=0;bottom=0;right=0;collapsible=0;dropTarget=0;fillColor=none;points=[[0,0.5],[1,0.5]];portConstraint=eastwest;" vertex="1" parent="IHgsMJMbLqcfS5eTaFf3-283">
          <mxGeometry y="40" width="1900" height="350" as="geometry" />
        </mxCell>
        <mxCell id="IHgsMJMbLqcfS5eTaFf3-285" value="No Contents - NIL (Yet to develop)" style="shape=partialRectangle;html=1;whiteSpace=wrap;connectable=0;strokeColor=inherit;overflow=hidden;fillColor=none;top=0;left=0;bottom=0;right=0;pointerEvents=1;" vertex="1" parent="IHgsMJMbLqcfS5eTaFf3-284">
          <mxGeometry width="380" height="350" as="geometry">
            <mxRectangle width="380" height="350" as="alternateBounds" />
          </mxGeometry>
        </mxCell>
        <mxCell id="IHgsMJMbLqcfS5eTaFf3-286" value="Setup Static Files on Cache:&lt;div&gt;1) Factory&lt;/div&gt;&lt;div&gt;- Factory Information&lt;/div&gt;&lt;div&gt;- Factory Global Standard&lt;/div&gt;&lt;div&gt;&lt;br&gt;&lt;/div&gt;&lt;div&gt;2) Machine&lt;/div&gt;&lt;div&gt;Shows fleet of deployed&amp;nbsp;&lt;span style=&quot;background-color: initial;&quot;&gt;devices / machines&lt;/span&gt;&lt;/div&gt;&lt;div&gt;&lt;br&gt;&lt;/div&gt;&lt;div&gt;3) Product&lt;/div&gt;&lt;div&gt;- Add Product&lt;/div&gt;&lt;div&gt;- Table (of Products of inbuilt ERP WITH&amp;nbsp;&lt;/div&gt;&lt;div&gt;- Name, SKU, Cost)&lt;/div&gt;&lt;div&gt;&lt;br&gt;&lt;/div&gt;&lt;div&gt;4) Customer&lt;/div&gt;&lt;div&gt;- Adding Customer -&amp;gt; to Customer list CRM like Table&lt;/div&gt;&lt;div&gt;&lt;br&gt;&lt;/div&gt;&lt;div&gt;5) Inventory&lt;/div&gt;&lt;div&gt;Shows Available stocks in inventory&lt;/div&gt;&lt;div&gt;(- Name, Image, prod Code, Quantity, Cost)&lt;/div&gt;&lt;div&gt;&lt;br&gt;&lt;/div&gt;&lt;div&gt;&lt;br&gt;&lt;/div&gt;&lt;div&gt;&lt;br&gt;&lt;/div&gt;" style="shape=partialRectangle;html=1;whiteSpace=wrap;connectable=0;strokeColor=inherit;overflow=hidden;fillColor=none;top=0;left=0;bottom=0;right=0;pointerEvents=1;" vertex="1" parent="IHgsMJMbLqcfS5eTaFf3-284">
          <mxGeometry x="380" width="380" height="350" as="geometry">
            <mxRectangle width="380" height="350" as="alternateBounds" />
          </mxGeometry>
        </mxCell>
        <mxCell id="IHgsMJMbLqcfS5eTaFf3-287" value="&lt;div&gt;Plan&lt;/div&gt;&lt;div&gt;&lt;br&gt;&lt;/div&gt;&lt;div&gt;1) Scheduling&amp;nbsp;&lt;/div&gt;&lt;div&gt;Wafting Table, Running Table, Completed Table&lt;/div&gt;&lt;div&gt;&lt;br&gt;&lt;/div&gt;&lt;div&gt;2) Order&amp;nbsp;&lt;/div&gt;&lt;div&gt;Order placing form -&amp;gt; adds to schedule -^&lt;/div&gt;&lt;div&gt;&lt;br&gt;&lt;/div&gt;" style="shape=partialRectangle;html=1;whiteSpace=wrap;connectable=0;strokeColor=inherit;overflow=hidden;fillColor=none;top=0;left=0;bottom=0;right=0;pointerEvents=1;" vertex="1" parent="IHgsMJMbLqcfS5eTaFf3-284">
          <mxGeometry x="760" width="380" height="350" as="geometry">
            <mxRectangle width="380" height="350" as="alternateBounds" />
          </mxGeometry>
        </mxCell>
        <mxCell id="IHgsMJMbLqcfS5eTaFf3-288" value="No Contents - NIL (Yet to develop)" style="shape=partialRectangle;html=1;whiteSpace=wrap;connectable=0;strokeColor=inherit;overflow=hidden;fillColor=none;top=0;left=0;bottom=0;right=0;pointerEvents=1;" vertex="1" parent="IHgsMJMbLqcfS5eTaFf3-284">
          <mxGeometry x="1140" width="380" height="350" as="geometry">
            <mxRectangle width="380" height="350" as="alternateBounds" />
          </mxGeometry>
        </mxCell>
        <mxCell id="IHgsMJMbLqcfS5eTaFf3-289" value="No Contents - NIL (Yet to develop)" style="shape=partialRectangle;html=1;whiteSpace=wrap;connectable=0;strokeColor=inherit;overflow=hidden;fillColor=none;top=0;left=0;bottom=0;right=0;pointerEvents=1;" vertex="1" parent="IHgsMJMbLqcfS5eTaFf3-284">
          <mxGeometry x="1520" width="380" height="350" as="geometry">
            <mxRectangle width="380" height="350" as="alternateBounds" />
          </mxGeometry>
        </mxCell>
        <mxCell id="IHgsMJMbLqcfS5eTaFf3-290" value="" style="group" connectable="0" vertex="1" parent="IHgsMJMbLqcfS5eTaFf3-258">
          <mxGeometry x="210" y="1150.75" width="350" height="329.25" as="geometry" />
        </mxCell>
        <object placeholders="1" c4Name="DWinzo Dashboard UI Container -Organization" c4Type="ContainerScopeBoundary" c4Application="DWinzo Container: Priority Below Top" label="&lt;font style=&quot;font-size: 16px&quot;&gt;&lt;b&gt;&lt;div style=&quot;text-align: left&quot;&gt;%c4Name%&lt;/div&gt;&lt;/b&gt;&lt;/font&gt;&lt;div style=&quot;text-align: left&quot;&gt;[%c4Application%]&lt;/div&gt;" id="IHgsMJMbLqcfS5eTaFf3-291">
          <mxCell style="rounded=1;fontSize=11;whiteSpace=wrap;html=1;dashed=1;arcSize=20;fillColor=none;strokeColor=#666666;fontColor=#333333;labelBackgroundColor=none;align=left;verticalAlign=bottom;labelBorderColor=none;spacingTop=0;spacing=10;dashPattern=8 4;metaEdit=1;rotatable=0;perimeter=rectanglePerimeter;noLabel=0;labelPadding=0;allowArrows=0;connectable=0;expand=0;recursiveResize=0;editable=1;pointerEvents=0;absoluteArcSize=1;points=[[0.25,0,0],[0.5,0,0],[0.75,0,0],[1,0.25,0],[1,0.5,0],[1,0.75,0],[0.75,1,0],[0.5,1,0],[0.25,1,0],[0,0.75,0],[0,0.5,0],[0,0.25,0]];" vertex="1" parent="IHgsMJMbLqcfS5eTaFf3-290">
            <mxGeometry x="10" width="340" height="329.25" as="geometry" />
          </mxCell>
        </object>
        <mxCell id="IHgsMJMbLqcfS5eTaFf3-292" value="" style="group" connectable="0" vertex="1" parent="IHgsMJMbLqcfS5eTaFf3-258">
          <mxGeometry x="585" y="1150.75" width="350" height="329.25" as="geometry" />
        </mxCell>
        <object placeholders="1" c4Name="DWinzo Setup UI Container -Organization" c4Type="ContainerScopeBoundary" c4Application="DWinzo Container: Priority Below Top" label="&lt;font style=&quot;font-size: 16px&quot;&gt;&lt;b&gt;&lt;div style=&quot;text-align: left&quot;&gt;%c4Name%&lt;/div&gt;&lt;/b&gt;&lt;/font&gt;&lt;div style=&quot;text-align: left&quot;&gt;[%c4Application%]&lt;/div&gt;" id="IHgsMJMbLqcfS5eTaFf3-293">
          <mxCell style="rounded=1;fontSize=11;whiteSpace=wrap;html=1;dashed=1;arcSize=20;fillColor=none;strokeColor=#666666;fontColor=#333333;labelBackgroundColor=none;align=left;verticalAlign=bottom;labelBorderColor=none;spacingTop=0;spacing=10;dashPattern=8 4;metaEdit=1;rotatable=0;perimeter=rectanglePerimeter;noLabel=0;labelPadding=0;allowArrows=0;connectable=0;expand=0;recursiveResize=0;editable=1;pointerEvents=0;absoluteArcSize=1;points=[[0.25,0,0],[0.5,0,0],[0.75,0,0],[1,0.25,0],[1,0.5,0],[1,0.75,0],[0.75,1,0],[0.5,1,0],[0.25,1,0],[0,0.75,0],[0,0.5,0],[0,0.25,0]];" vertex="1" parent="IHgsMJMbLqcfS5eTaFf3-292">
            <mxGeometry x="10" width="340" height="329.25" as="geometry" />
          </mxCell>
        </object>
        <mxCell id="IHgsMJMbLqcfS5eTaFf3-294" value="" style="group" connectable="0" vertex="1" parent="IHgsMJMbLqcfS5eTaFf3-258">
          <mxGeometry x="971.5" y="1150.75" width="350" height="329.25" as="geometry" />
        </mxCell>
        <object placeholders="1" c4Name="DWinzo Plan UI Container -Organization" c4Type="ContainerScopeBoundary" c4Application="DWinzo Container: Priority Below Top" label="&lt;font style=&quot;font-size: 16px&quot;&gt;&lt;b&gt;&lt;div style=&quot;text-align: left&quot;&gt;%c4Name%&lt;/div&gt;&lt;/b&gt;&lt;/font&gt;&lt;div style=&quot;text-align: left&quot;&gt;[%c4Application%]&lt;/div&gt;" id="IHgsMJMbLqcfS5eTaFf3-295">
          <mxCell style="rounded=1;fontSize=11;whiteSpace=wrap;html=1;dashed=1;arcSize=20;fillColor=none;strokeColor=#666666;fontColor=#333333;labelBackgroundColor=none;align=left;verticalAlign=bottom;labelBorderColor=none;spacingTop=0;spacing=10;dashPattern=8 4;metaEdit=1;rotatable=0;perimeter=rectanglePerimeter;noLabel=0;labelPadding=0;allowArrows=0;connectable=0;expand=0;recursiveResize=0;editable=1;pointerEvents=0;absoluteArcSize=1;points=[[0.25,0,0],[0.5,0,0],[0.75,0,0],[1,0.25,0],[1,0.5,0],[1,0.75,0],[0.75,1,0],[0.5,1,0],[0.25,1,0],[0,0.75,0],[0,0.5,0],[0,0.25,0]];" vertex="1" parent="IHgsMJMbLqcfS5eTaFf3-294">
            <mxGeometry x="10" width="340" height="329.25" as="geometry" />
          </mxCell>
        </object>
        <mxCell id="IHgsMJMbLqcfS5eTaFf3-296" value="" style="group" connectable="0" vertex="1" parent="IHgsMJMbLqcfS5eTaFf3-258">
          <mxGeometry x="1351.5" y="1150.75" width="350" height="329.25" as="geometry" />
        </mxCell>
        <object placeholders="1" c4Name="DWinzo Track UI Container -Organization" c4Type="ContainerScopeBoundary" c4Application="DWinzo Container: Priority Below Top" label="&lt;font style=&quot;font-size: 16px&quot;&gt;&lt;b&gt;&lt;div style=&quot;text-align: left&quot;&gt;%c4Name%&lt;/div&gt;&lt;/b&gt;&lt;/font&gt;&lt;div style=&quot;text-align: left&quot;&gt;[%c4Application%]&lt;/div&gt;" id="IHgsMJMbLqcfS5eTaFf3-297">
          <mxCell style="rounded=1;fontSize=11;whiteSpace=wrap;html=1;dashed=1;arcSize=20;fillColor=none;strokeColor=#666666;fontColor=#333333;labelBackgroundColor=none;align=left;verticalAlign=bottom;labelBorderColor=none;spacingTop=0;spacing=10;dashPattern=8 4;metaEdit=1;rotatable=0;perimeter=rectanglePerimeter;noLabel=0;labelPadding=0;allowArrows=0;connectable=0;expand=0;recursiveResize=0;editable=1;pointerEvents=0;absoluteArcSize=1;points=[[0.25,0,0],[0.5,0,0],[0.75,0,0],[1,0.25,0],[1,0.5,0],[1,0.75,0],[0.75,1,0],[0.5,1,0],[0.25,1,0],[0,0.75,0],[0,0.5,0],[0,0.25,0]];" vertex="1" parent="IHgsMJMbLqcfS5eTaFf3-296">
            <mxGeometry x="10" width="340" height="329.25" as="geometry" />
          </mxCell>
        </object>
        <mxCell id="IHgsMJMbLqcfS5eTaFf3-298" value="" style="group" connectable="0" vertex="1" parent="IHgsMJMbLqcfS5eTaFf3-258">
          <mxGeometry x="1727.5" y="1149.25" width="350" height="330.75" as="geometry" />
        </mxCell>
        <object placeholders="1" c4Name="DWinzo Settings UI Container -Organization" c4Type="ContainerScopeBoundary" c4Application="DWinzo Container: Priority Below Top" label="&lt;font style=&quot;font-size: 16px&quot;&gt;&lt;b&gt;&lt;div style=&quot;text-align: left&quot;&gt;%c4Name%&lt;/div&gt;&lt;/b&gt;&lt;/font&gt;&lt;div style=&quot;text-align: left&quot;&gt;[%c4Application%]&lt;/div&gt;" id="IHgsMJMbLqcfS5eTaFf3-299">
          <mxCell style="rounded=1;fontSize=11;whiteSpace=wrap;html=1;dashed=1;arcSize=20;fillColor=none;strokeColor=#666666;fontColor=#333333;labelBackgroundColor=none;align=left;verticalAlign=bottom;labelBorderColor=none;spacingTop=0;spacing=10;dashPattern=8 4;metaEdit=1;rotatable=0;perimeter=rectanglePerimeter;noLabel=0;labelPadding=0;allowArrows=0;connectable=0;expand=0;recursiveResize=0;editable=1;pointerEvents=0;absoluteArcSize=1;points=[[0.25,0,0],[0.5,0,0],[0.75,0,0],[1,0.25,0],[1,0.5,0],[1,0.75,0],[0.75,1,0],[0.5,1,0],[0.25,1,0],[0,0.75,0],[0,0.5,0],[0,0.25,0]];" vertex="1" parent="IHgsMJMbLqcfS5eTaFf3-298">
            <mxGeometry x="10" width="340" height="330.75" as="geometry" />
          </mxCell>
        </object>
        <mxCell id="y3_AkyGFKerVFW_caFqs-19" value="1) Login / Signup - AUTHENTICATION &amp;amp; AUTHORIZATION&amp;nbsp;&lt;div&gt;&lt;span style=&quot;font-weight: normal;&quot;&gt;Microservices Architecture&amp;nbsp;&lt;/span&gt;&lt;/div&gt;" style="swimlane;horizontal=0;whiteSpace=wrap;html=1;startSize=40;strokeColor=#000000;" vertex="1" parent="1">
          <mxGeometry x="-750" y="-620" width="1360" height="820" as="geometry" />
        </mxCell>
        <mxCell id="y3_AkyGFKerVFW_caFqs-20" value="&lt;font style=&quot;font-size: 14px;&quot;&gt;&lt;b style=&quot;&quot;&gt;verify&lt;/b&gt;(query:authRequest)&lt;/font&gt;&lt;div&gt;&lt;font size=&quot;3&quot;&gt;&quot;username&quot;: rithish&lt;/font&gt;&lt;/div&gt;&lt;div&gt;&lt;font size=&quot;3&quot;&gt;&quot;password&quot;:&amp;nbsp;&lt;/font&gt;&lt;span style=&quot;background-color: initial;&quot;&gt;&lt;font size=&quot;3&quot;&gt;cyphertext&lt;/font&gt;&lt;/span&gt;&lt;/div&gt;" style="whiteSpace=wrap;html=1;strokeColor=#666666;strokeWidth=1;shadow=0;dashed=0;align=left;" vertex="1" parent="y3_AkyGFKerVFW_caFqs-19">
          <mxGeometry x="180" y="610" width="170" height="68.5" as="geometry" />
        </mxCell>
        <mxCell id="y3_AkyGFKerVFW_caFqs-21" value="USER" style="sketch=0;outlineConnect=0;fontColor=#232F3E;gradientColor=none;fillColor=#232F3D;strokeColor=none;dashed=0;verticalLabelPosition=bottom;verticalAlign=top;align=center;html=1;fontSize=12;fontStyle=0;aspect=fixed;pointerEvents=1;shape=mxgraph.aws4.user;" vertex="1" parent="y3_AkyGFKerVFW_caFqs-19">
          <mxGeometry x="80" y="37.5" width="43" height="43" as="geometry" />
        </mxCell>
        <mxCell id="y3_AkyGFKerVFW_caFqs-23" value="&lt;b&gt;&lt;font style=&quot;font-size: 14px;&quot;&gt;CLIENT&lt;/font&gt;&lt;/b&gt;" style="rounded=0;whiteSpace=wrap;html=1;" vertex="1" parent="y3_AkyGFKerVFW_caFqs-19">
          <mxGeometry x="123" y="50" width="75" height="30.5" as="geometry" />
        </mxCell>
        <mxCell id="y3_AkyGFKerVFW_caFqs-25" value="AUTH REQUEST" style="shape=table;startSize=22;container=1;collapsible=0;childLayout=tableLayout;fontStyle=1;strokeColor=#000000;" vertex="1" parent="y3_AkyGFKerVFW_caFqs-19">
          <mxGeometry x="70" y="200" width="270" height="270" as="geometry" />
        </mxCell>
        <mxCell id="y3_AkyGFKerVFW_caFqs-26" value="" style="shape=tableRow;horizontal=0;startSize=0;swimlaneHead=0;swimlaneBody=0;strokeColor=inherit;top=0;left=0;bottom=0;right=0;collapsible=0;dropTarget=0;fillColor=none;points=[[0,0.5],[1,0.5]];portConstraint=eastwest;" vertex="1" parent="y3_AkyGFKerVFW_caFqs-25">
          <mxGeometry y="22" width="270" height="124" as="geometry" />
        </mxCell>
        <mxCell id="y3_AkyGFKerVFW_caFqs-27" value="&lt;font style=&quot;font-size: 14px;&quot;&gt;POST / sign up&lt;/font&gt;&lt;div&gt;&lt;font size=&quot;3&quot;&gt;&lt;b&gt;request&lt;/b&gt;:&lt;/font&gt;&lt;/div&gt;&lt;div&gt;&lt;font size=&quot;3&quot;&gt;&lt;b&gt;username&lt;/b&gt;: rithish&lt;/font&gt;&lt;/div&gt;&lt;div&gt;&lt;font size=&quot;3&quot;&gt;&lt;b&gt;email&lt;/b&gt;: rithish@hexrfactory.com&lt;/font&gt;&lt;/div&gt;&lt;div&gt;&lt;font size=&quot;3&quot;&gt;&lt;b&gt;password&lt;/b&gt;: 42ferf90frSHA256encText&lt;/font&gt;&lt;/div&gt;&lt;div&gt;&lt;font size=&quot;3&quot;&gt;(third party auth)&lt;/font&gt;&lt;/div&gt;" style="shape=partialRectangle;html=1;whiteSpace=wrap;connectable=0;strokeColor=inherit;overflow=hidden;fillColor=none;top=0;left=0;bottom=0;right=0;pointerEvents=1;align=left;" vertex="1" parent="y3_AkyGFKerVFW_caFqs-26">
          <mxGeometry width="270" height="124" as="geometry">
            <mxRectangle width="270" height="124" as="alternateBounds" />
          </mxGeometry>
        </mxCell>
        <mxCell id="y3_AkyGFKerVFW_caFqs-28" value="" style="shape=tableRow;horizontal=0;startSize=0;swimlaneHead=0;swimlaneBody=0;strokeColor=inherit;top=0;left=0;bottom=0;right=0;collapsible=0;dropTarget=0;fillColor=none;points=[[0,0.5],[1,0.5]];portConstraint=eastwest;" vertex="1" parent="y3_AkyGFKerVFW_caFqs-25">
          <mxGeometry y="146" width="270" height="124" as="geometry" />
        </mxCell>
        <mxCell id="y3_AkyGFKerVFW_caFqs-29" value="&lt;div style=&quot;&quot;&gt;&lt;div&gt;&lt;span style=&quot;background-color: initial;&quot;&gt;&lt;font style=&quot;font-size: 14px;&quot;&gt;POST / log in&lt;/font&gt;&lt;/span&gt;&lt;/div&gt;&lt;div&gt;&lt;font size=&quot;3&quot;&gt;&lt;b&gt;request&lt;/b&gt;:&lt;/font&gt;&lt;/div&gt;&lt;div&gt;&lt;font size=&quot;3&quot;&gt;&lt;b&gt;username&lt;/b&gt;: rithish&lt;/font&gt;&lt;/div&gt;&lt;div&gt;&lt;font size=&quot;3&quot;&gt;&lt;b&gt;email&lt;/b&gt;: rithish@hexrfactory.com&lt;/font&gt;&lt;/div&gt;&lt;div&gt;&lt;font size=&quot;3&quot;&gt;&lt;b&gt;password&lt;/b&gt;:&amp;nbsp;&lt;span style=&quot;background-color: initial;&quot;&gt;42frfrSHA256encText&lt;/span&gt;&lt;/font&gt;&lt;/div&gt;&lt;div style=&quot;&quot;&gt;&lt;font size=&quot;3&quot;&gt;(third party auth)&lt;/font&gt;&lt;/div&gt;&lt;/div&gt;" style="shape=partialRectangle;html=1;whiteSpace=wrap;connectable=0;strokeColor=inherit;overflow=hidden;fillColor=none;top=0;left=0;bottom=0;right=0;pointerEvents=1;align=left;" vertex="1" parent="y3_AkyGFKerVFW_caFqs-28">
          <mxGeometry width="270" height="124" as="geometry">
            <mxRectangle width="270" height="124" as="alternateBounds" />
          </mxGeometry>
        </mxCell>
        <mxCell id="y3_AkyGFKerVFW_caFqs-32" value="&lt;div&gt;&lt;font style=&quot;font-size: 14px;&quot;&gt;&lt;b style=&quot;&quot;&gt;JWT(&lt;/b&gt;decoded)&lt;/font&gt;&lt;/div&gt;&lt;div&gt;&lt;b&gt;&lt;font size=&quot;3&quot; style=&quot;&quot;&gt;HEADER:{&lt;/font&gt;&lt;/b&gt;&lt;/div&gt;&lt;div&gt;&lt;div style=&quot;background-color: rgb(255, 255, 254); font-family: &amp;quot;Cascadia Mono&amp;quot;, Consolas, &amp;quot;Courier New&amp;quot;, monospace; font-size: 14px; line-height: 19px; white-space: pre;&quot;&gt;&lt;div&gt;{&lt;/div&gt;&lt;div&gt;&amp;nbsp;&amp;nbsp;&lt;span style=&quot;color: #a31515;&quot;&gt;&quot;alg&quot;&lt;/span&gt;:&amp;nbsp;&lt;span style=&quot;color: #0451a5;&quot;&gt;&quot;HS256&quot;&lt;/span&gt;,&lt;/div&gt;&lt;div&gt;&amp;nbsp;&amp;nbsp;&lt;span style=&quot;color: #a31515;&quot;&gt;&quot;typ&quot;&lt;/span&gt;:&amp;nbsp;&lt;span style=&quot;color: #0451a5;&quot;&gt;&quot;JWT&quot;&lt;/span&gt;&lt;/div&gt;&lt;div&gt;}&lt;/div&gt;&lt;/div&gt;&lt;/div&gt;&lt;div&gt;&lt;b style=&quot;background-color: initial;&quot;&gt;&lt;font size=&quot;3&quot;&gt;PAYLOAD:{&lt;/font&gt;&lt;/b&gt;&lt;/div&gt;&lt;div&gt;&lt;span style=&quot;background-color: initial;&quot;&gt;&lt;font style=&quot;&quot; size=&quot;3&quot;&gt;{&lt;/font&gt;&lt;/span&gt;&lt;/div&gt;&lt;div&gt;&lt;span style=&quot;background-color: initial;&quot;&gt;&lt;font style=&quot;&quot; size=&quot;3&quot;&gt;&amp;nbsp; &amp;nbsp;&quot;&lt;b&gt;UserData&lt;/b&gt;&quot;:{&lt;/font&gt;&lt;/span&gt;&lt;/div&gt;&lt;div&gt;&lt;span style=&quot;background-color: initial;&quot;&gt;&lt;font size=&quot;3&quot;&gt;&lt;span style=&quot;white-space: pre;&quot;&gt;&#x9;&lt;/span&gt;&quot;UserID&quot;: USER_ID&lt;/font&gt;&lt;/span&gt;&lt;/div&gt;&lt;div&gt;&lt;font size=&quot;3&quot;&gt;&lt;span style=&quot;white-space: pre;&quot;&gt;&#x9;&lt;/span&gt;&quot;email&quot;: &quot;USER_EMAIL&quot;&lt;br&gt;&lt;/font&gt;&lt;/div&gt;&lt;div&gt;&lt;font size=&quot;3&quot;&gt;&lt;span style=&quot;white-space: pre;&quot;&gt;&#x9;&lt;/span&gt;&quot;username&quot;: &quot;rithish&quot;&lt;br&gt;&lt;/font&gt;&lt;/div&gt;&lt;div&gt;&lt;font size=&quot;3&quot;&gt;&amp;nbsp; &amp;nbsp;&quot;&lt;b&gt;Roles&lt;/b&gt;&quot;:{&lt;/font&gt;&lt;/div&gt;&lt;div&gt;&lt;font size=&quot;3&quot;&gt;&lt;span style=&quot;white-space: pre;&quot;&gt;&#x9;&lt;/span&gt;&quot;rolename&quot;: ROLE_ID&lt;br&gt;&lt;/font&gt;&lt;/div&gt;&lt;div&gt;&lt;font size=&quot;3&quot;&gt;&amp;nbsp; &amp;nbsp;&quot;&lt;b&gt;Permissions&lt;/b&gt;&quot;:{&lt;/font&gt;&lt;/div&gt;&lt;div&gt;&lt;font size=&quot;3&quot;&gt;&lt;span style=&quot;white-space: pre;&quot;&gt;&#x9;&lt;/span&gt;&quot;permission&quot;: PERMISSION_ID&lt;br&gt;&lt;/font&gt;&lt;/div&gt;&lt;div&gt;&lt;font size=&quot;3&quot;&gt;}&lt;/font&gt;&lt;/div&gt;&lt;div&gt;&lt;font size=&quot;3&quot;&gt;expiry&quot;: &quot;values&quot;&lt;/font&gt;&lt;/div&gt;&lt;div&gt;&lt;font size=&quot;3&quot;&gt;}&lt;/font&gt;&lt;/div&gt;&lt;div&gt;&lt;font size=&quot;3&quot;&gt;&lt;b style=&quot;background-color: initial;&quot;&gt;SIGNATURE:{&lt;/b&gt;&lt;br&gt;&lt;/font&gt;&lt;/div&gt;&lt;div&gt;&lt;font size=&quot;3&quot;&gt;base64bitEncoded:header+&quot;.&quot;+&lt;/font&gt;&lt;/div&gt;&lt;div&gt;&lt;span style=&quot;font-size: medium;&quot;&gt;base64bitEncoded:payload+&lt;/span&gt;&lt;font size=&quot;3&quot;&gt;&lt;br&gt;&lt;/font&gt;&lt;/div&gt;&lt;div&gt;&lt;span style=&quot;font-size: medium;&quot;&gt;secrets -&amp;nbsp;&lt;/span&gt;&lt;span style=&quot;font-size: medium; background-color: initial;&quot;&gt;apiKey&lt;/span&gt;&lt;b style=&quot;font-size: medium; background-color: initial;&quot;&gt;: &quot;&lt;/b&gt;&lt;span style=&quot;font-size: medium; background-color: initial;&quot;&gt;lfkdncvsa&lt;/span&gt;&lt;b style=&quot;font-size: medium; background-color: initial;&quot;&gt;...&quot;&lt;/b&gt;&lt;/div&gt;" style="whiteSpace=wrap;html=1;strokeColor=#666666;strokeWidth=1;shadow=0;dashed=0;align=left;" vertex="1" parent="y3_AkyGFKerVFW_caFqs-19">
          <mxGeometry x="910" y="90" width="290" height="440" as="geometry" />
        </mxCell>
        <mxCell id="y3_AkyGFKerVFW_caFqs-66" style="edgeStyle=orthogonalEdgeStyle;rounded=0;orthogonalLoop=1;jettySize=auto;html=1;strokeColor=#FF3333;" edge="1" parent="y3_AkyGFKerVFW_caFqs-19" source="y3_AkyGFKerVFW_caFqs-33">
          <mxGeometry relative="1" as="geometry">
            <mxPoint x="1200" y="600" as="targetPoint" />
            <Array as="points">
              <mxPoint x="1240" y="600" />
            </Array>
          </mxGeometry>
        </mxCell>
        <mxCell id="y3_AkyGFKerVFW_caFqs-33" value="Application" style="sketch=0;outlineConnect=0;fontColor=#232F3E;gradientColor=none;strokeColor=#232F3E;fillColor=#ffffff;dashed=0;verticalLabelPosition=bottom;verticalAlign=top;align=center;html=1;fontSize=12;fontStyle=0;aspect=fixed;shape=mxgraph.aws4.resourceIcon;resIcon=mxgraph.aws4.application;shadow=1;" vertex="1" parent="y3_AkyGFKerVFW_caFqs-19">
          <mxGeometry x="1240" y="37.5" width="82.5" height="82.5" as="geometry" />
        </mxCell>
        <mxCell id="y3_AkyGFKerVFW_caFqs-63" style="edgeStyle=orthogonalEdgeStyle;rounded=0;orthogonalLoop=1;jettySize=auto;html=1;entryX=0.5;entryY=1;entryDx=0;entryDy=0;strokeColor=#FF3333;" edge="1" parent="y3_AkyGFKerVFW_caFqs-19" source="y3_AkyGFKerVFW_caFqs-34" target="y3_AkyGFKerVFW_caFqs-45">
          <mxGeometry relative="1" as="geometry" />
        </mxCell>
        <mxCell id="y3_AkyGFKerVFW_caFqs-34" value="&lt;b&gt;Auth DB&lt;/b&gt;&lt;div&gt;service: MongoDB&lt;/div&gt;" style="shape=cylinder3;whiteSpace=wrap;html=1;boundedLbl=1;backgroundOutline=1;size=15;" vertex="1" parent="y3_AkyGFKerVFW_caFqs-19">
          <mxGeometry x="312.5" y="690" width="115" height="98" as="geometry" />
        </mxCell>
        <mxCell id="y3_AkyGFKerVFW_caFqs-39" style="edgeStyle=orthogonalEdgeStyle;rounded=0;orthogonalLoop=1;jettySize=auto;html=1;exitX=0;exitY=0;exitDx=40;exitDy=99.5;exitPerimeter=0;strokeColor=#007FFF;" edge="1" parent="y3_AkyGFKerVFW_caFqs-19" source="y3_AkyGFKerVFW_caFqs-36" target="y3_AkyGFKerVFW_caFqs-38">
          <mxGeometry relative="1" as="geometry">
            <Array as="points">
              <mxPoint x="350" y="360" />
              <mxPoint x="350" y="360" />
            </Array>
          </mxGeometry>
        </mxCell>
        <mxCell id="y3_AkyGFKerVFW_caFqs-57" style="edgeStyle=orthogonalEdgeStyle;rounded=0;orthogonalLoop=1;jettySize=auto;html=1;exitX=1;exitY=0.5;exitDx=0;exitDy=0;exitPerimeter=0;strokeColor=#9999FF;" edge="1" parent="y3_AkyGFKerVFW_caFqs-19" source="y3_AkyGFKerVFW_caFqs-36" target="y3_AkyGFKerVFW_caFqs-33">
          <mxGeometry relative="1" as="geometry">
            <Array as="points">
              <mxPoint x="430" y="80" />
            </Array>
          </mxGeometry>
        </mxCell>
        <mxCell id="y3_AkyGFKerVFW_caFqs-36" value="&lt;b&gt;&lt;font style=&quot;font-size: 14px;&quot;&gt;API GATEWAY&lt;/font&gt;&lt;/b&gt;" style="html=1;shadow=0;dashed=0;align=center;verticalAlign=middle;shape=mxgraph.arrows2.quadArrow;dy=10;dx=20;notch=24;arrowHead=10;" vertex="1" parent="y3_AkyGFKerVFW_caFqs-19">
          <mxGeometry x="310" y="37.5" width="120" height="119.5" as="geometry" />
        </mxCell>
        <mxCell id="y3_AkyGFKerVFW_caFqs-37" style="edgeStyle=orthogonalEdgeStyle;rounded=0;orthogonalLoop=1;jettySize=auto;html=1;exitX=1;exitY=0.5;exitDx=0;exitDy=0;entryX=0;entryY=0.5;entryDx=0;entryDy=0;entryPerimeter=0;strokeColor=#007FFF;" edge="1" parent="y3_AkyGFKerVFW_caFqs-19" source="y3_AkyGFKerVFW_caFqs-23" target="y3_AkyGFKerVFW_caFqs-36">
          <mxGeometry relative="1" as="geometry" />
        </mxCell>
        <mxCell id="y3_AkyGFKerVFW_caFqs-54" style="edgeStyle=orthogonalEdgeStyle;rounded=0;orthogonalLoop=1;jettySize=auto;html=1;strokeColor=#00CC00;entryX=-0.019;entryY=0.244;entryDx=0;entryDy=0;entryPerimeter=0;" edge="1" parent="y3_AkyGFKerVFW_caFqs-19" source="y3_AkyGFKerVFW_caFqs-38" target="y3_AkyGFKerVFW_caFqs-45">
          <mxGeometry relative="1" as="geometry">
            <mxPoint x="880" y="570" as="targetPoint" />
            <Array as="points" />
          </mxGeometry>
        </mxCell>
        <mxCell id="y3_AkyGFKerVFW_caFqs-38" value="&lt;div&gt;&lt;b style=&quot;&quot;&gt;&lt;font style=&quot;font-size: 14px;&quot;&gt;AUTH MICROSERVICE&lt;/font&gt;&lt;/b&gt;&lt;/div&gt;&lt;div&gt;&lt;font style=&quot;font-size: 14px;&quot;&gt;(Backend: NodeJS)&lt;/font&gt;&lt;/div&gt;" style="rounded=1;whiteSpace=wrap;html=1;" vertex="1" parent="y3_AkyGFKerVFW_caFqs-19">
          <mxGeometry x="275" y="530" width="190" height="80" as="geometry" />
        </mxCell>
        <mxCell id="y3_AkyGFKerVFW_caFqs-40" style="edgeStyle=orthogonalEdgeStyle;rounded=0;orthogonalLoop=1;jettySize=auto;html=1;entryX=0;entryY=0;entryDx=80;entryDy=99.5;entryPerimeter=0;strokeColor=#00CC00;" edge="1" parent="y3_AkyGFKerVFW_caFqs-19" source="y3_AkyGFKerVFW_caFqs-38" target="y3_AkyGFKerVFW_caFqs-36">
          <mxGeometry relative="1" as="geometry">
            <Array as="points">
              <mxPoint x="390" y="440" />
              <mxPoint x="390" y="440" />
            </Array>
          </mxGeometry>
        </mxCell>
        <mxCell id="y3_AkyGFKerVFW_caFqs-42" style="edgeStyle=orthogonalEdgeStyle;rounded=0;orthogonalLoop=1;jettySize=auto;html=1;strokeColor=#007FFF;" edge="1" parent="y3_AkyGFKerVFW_caFqs-19" source="y3_AkyGFKerVFW_caFqs-38" target="y3_AkyGFKerVFW_caFqs-34">
          <mxGeometry relative="1" as="geometry">
            <Array as="points">
              <mxPoint x="360" y="640" />
              <mxPoint x="360" y="640" />
            </Array>
          </mxGeometry>
        </mxCell>
        <mxCell id="y3_AkyGFKerVFW_caFqs-43" style="edgeStyle=orthogonalEdgeStyle;rounded=0;orthogonalLoop=1;jettySize=auto;html=1;entryX=0.62;entryY=0.988;entryDx=0;entryDy=0;entryPerimeter=0;strokeColor=#00CC00;" edge="1" parent="y3_AkyGFKerVFW_caFqs-19" source="y3_AkyGFKerVFW_caFqs-34" target="y3_AkyGFKerVFW_caFqs-38">
          <mxGeometry relative="1" as="geometry">
            <Array as="points">
              <mxPoint x="393" y="603" />
              <mxPoint x="393" y="603" />
            </Array>
          </mxGeometry>
        </mxCell>
        <mxCell id="y3_AkyGFKerVFW_caFqs-53" value="&lt;div&gt;&lt;/div&gt;" style="edgeLabel;html=1;align=center;verticalAlign=middle;resizable=0;points=[];" connectable="0" vertex="1" parent="y3_AkyGFKerVFW_caFqs-43">
          <mxGeometry x="-0.1205" y="-1" relative="1" as="geometry">
            <mxPoint as="offset" />
          </mxGeometry>
        </mxCell>
        <mxCell id="y3_AkyGFKerVFW_caFqs-55" style="edgeStyle=orthogonalEdgeStyle;rounded=0;orthogonalLoop=1;jettySize=auto;html=1;entryX=1;entryY=0.375;entryDx=0;entryDy=0;entryPerimeter=0;strokeColor=#007FFF;shadow=0;" edge="1" parent="y3_AkyGFKerVFW_caFqs-19" source="y3_AkyGFKerVFW_caFqs-45" target="y3_AkyGFKerVFW_caFqs-38">
          <mxGeometry relative="1" as="geometry">
            <mxPoint x="490" y="550" as="targetPoint" />
            <Array as="points">
              <mxPoint x="780" y="550" />
              <mxPoint x="780" y="550" />
            </Array>
          </mxGeometry>
        </mxCell>
        <mxCell id="y3_AkyGFKerVFW_caFqs-45" value="&lt;div&gt;&lt;b style=&quot;&quot;&gt;&lt;font style=&quot;font-size: 14px;&quot;&gt;AUTHORIZATION (IAM)&lt;/font&gt;&lt;/b&gt;&lt;/div&gt;&lt;div&gt;&lt;b style=&quot;&quot;&gt;&lt;font style=&quot;font-size: 14px;&quot;&gt;MICROSERVICE&lt;/font&gt;&lt;/b&gt;&lt;/div&gt;&lt;div&gt;&lt;font style=&quot;font-size: 12px;&quot;&gt;- RBAC or relevant rule&lt;/font&gt;&lt;/div&gt;&lt;div&gt;&lt;font style=&quot;font-size: 12px;&quot;&gt;(service: OpenID, Keycloak)&lt;/font&gt;&lt;/div&gt;" style="rounded=1;whiteSpace=wrap;html=1;" vertex="1" parent="y3_AkyGFKerVFW_caFqs-19">
          <mxGeometry x="1010" y="550" width="190" height="90" as="geometry" />
        </mxCell>
        <mxCell id="y3_AkyGFKerVFW_caFqs-48" value="&lt;font style=&quot;font-size: 14px;&quot;&gt;&lt;b&gt;JWT&lt;/b&gt;:{&lt;/font&gt;&lt;div&gt;&lt;font size=&quot;3&quot;&gt;&quot;username&quot;: rithish&lt;/font&gt;&lt;/div&gt;&lt;div&gt;&lt;font size=&quot;3&quot;&gt;&quot;user-role&quot;: role&lt;/font&gt;&lt;/div&gt;&lt;div&gt;&lt;font size=&quot;3&quot;&gt;&quot;apiToken/Key&quot;: &quot;ifguvd....&quot;&lt;/font&gt;&lt;/div&gt;" style="rounded=0;whiteSpace=wrap;html=1;align=left;strokeColor=#000000;" vertex="1" parent="y3_AkyGFKerVFW_caFqs-19">
          <mxGeometry x="780" y="580" width="200" height="80" as="geometry" />
        </mxCell>
        <mxCell id="y3_AkyGFKerVFW_caFqs-51" value="&lt;i&gt;&lt;font style=&quot;font-size: 14px;&quot;&gt;programmatic access for admin and user control&lt;/font&gt;&lt;/i&gt;" style="rounded=0;whiteSpace=wrap;html=1;strokeColor=#FF3333;" vertex="1" parent="y3_AkyGFKerVFW_caFqs-19">
          <mxGeometry x="1110" y="740" width="160" height="40" as="geometry" />
        </mxCell>
        <mxCell id="y3_AkyGFKerVFW_caFqs-56" value="&lt;font style=&quot;font-size: 14px;&quot;&gt;&lt;b&gt;JWT&lt;/b&gt;:{&lt;/font&gt;&lt;div&gt;&lt;font size=&quot;3&quot;&gt;&quot;authentication&quot;: true&lt;/font&gt;&lt;/div&gt;&lt;div&gt;&lt;font size=&quot;3&quot;&gt;&quot;permission&quot;: services: x y z&lt;/font&gt;&lt;/div&gt;&lt;div&gt;&lt;font size=&quot;3&quot;&gt;&quot;username&quot;: &quot;rithish&quot;&lt;/font&gt;&lt;/div&gt;&lt;div&gt;&lt;font size=&quot;3&quot;&gt;&quot;api/Key&quot;: &quot;ifguvd....&quot;&lt;/font&gt;&lt;/div&gt;" style="rounded=0;whiteSpace=wrap;html=1;align=left;strokeColor=#000000;" vertex="1" parent="y3_AkyGFKerVFW_caFqs-19">
          <mxGeometry x="480" y="420" width="210" height="120" as="geometry" />
        </mxCell>
        <mxCell id="y3_AkyGFKerVFW_caFqs-58" value="&lt;font style=&quot;font-size: 12px;&quot;&gt;&lt;b&gt;JWT&lt;/b&gt;(encoded)&lt;/font&gt;&lt;div&gt;&lt;font size=&quot;3&quot;&gt;1) access token&lt;/font&gt;&lt;/div&gt;&lt;div&gt;&lt;font size=&quot;3&quot;&gt;2) refresh token&lt;/font&gt;&lt;/div&gt;&lt;div&gt;&lt;font size=&quot;3&quot;&gt;3) session token&lt;/font&gt;&lt;/div&gt;" style="rounded=0;whiteSpace=wrap;html=1;align=left;" vertex="1" parent="y3_AkyGFKerVFW_caFqs-19">
          <mxGeometry x="400" y="130" width="130" height="80" as="geometry" />
        </mxCell>
        <mxCell id="y3_AkyGFKerVFW_caFqs-61" value="&lt;i&gt;&lt;font style=&quot;font-size: 14px;&quot;&gt;programmatic access for admin and user control&lt;/font&gt;&lt;/i&gt;" style="rounded=0;whiteSpace=wrap;html=1;strokeColor=#FF3333;" vertex="1" parent="y3_AkyGFKerVFW_caFqs-19">
          <mxGeometry x="1250" y="180" width="90" height="80" as="geometry" />
        </mxCell>
        <mxCell id="y3_AkyGFKerVFW_caFqs-62" value="&lt;div style=&quot;font-size: 11px; text-align: center; text-wrap: nowrap;&quot;&gt;Response: Data&lt;/div&gt;&lt;span style=&quot;font-size: 11px; text-align: center; text-wrap: nowrap; background-color: rgb(255, 255, 255);&quot;&gt;200 OK&lt;/span&gt;" style="whiteSpace=wrap;html=1;strokeColor=#666666;strokeWidth=1;shadow=0;dashed=0;align=left;" vertex="1" parent="y3_AkyGFKerVFW_caFqs-19">
          <mxGeometry x="400" y="610" width="80" height="30" as="geometry" />
        </mxCell>
        <mxCell id="y3_AkyGFKerVFW_caFqs-64" style="edgeStyle=orthogonalEdgeStyle;rounded=0;orthogonalLoop=1;jettySize=auto;html=1;entryX=1;entryY=0.5;entryDx=0;entryDy=0;entryPerimeter=0;strokeColor=#FF3333;" edge="1" parent="y3_AkyGFKerVFW_caFqs-19" source="y3_AkyGFKerVFW_caFqs-45" target="y3_AkyGFKerVFW_caFqs-34">
          <mxGeometry relative="1" as="geometry">
            <Array as="points">
              <mxPoint x="1105" y="740" />
              <mxPoint x="428" y="740" />
            </Array>
          </mxGeometry>
        </mxCell>
        <mxCell id="Vei8fSmrkZ3CKQq-na2o-1" value="&lt;font style=&quot;font-size: 36px;&quot;&gt;DWINZO&lt;/font&gt;" style="rounded=0;whiteSpace=wrap;html=1;" vertex="1" parent="1">
          <mxGeometry x="573" y="900" width="837" height="300" as="geometry" />
        </mxCell>
        <mxCell id="Vei8fSmrkZ3CKQq-na2o-2" value="&lt;font style=&quot;font-size: 36px;&quot;&gt;DWINZO IoT&lt;/font&gt;" style="rounded=0;whiteSpace=wrap;html=1;" vertex="1" parent="1">
          <mxGeometry x="1430" y="900" width="900" height="300" as="geometry" />
        </mxCell>
        <mxCell id="Vei8fSmrkZ3CKQq-na2o-3" value="&lt;font style=&quot;font-size: 36px;&quot;&gt;DWINZO Asset Manager&lt;/font&gt;" style="rounded=0;whiteSpace=wrap;html=1;" vertex="1" parent="1">
          <mxGeometry x="2350" y="900" width="890" height="300" as="geometry" />
        </mxCell>
        <mxCell id="GkaKqbV0toeAQ3alkk5x-3" style="edgeStyle=orthogonalEdgeStyle;rounded=0;orthogonalLoop=1;jettySize=auto;html=1;exitX=0.25;exitY=1;exitDx=0;exitDy=0;" edge="1" parent="1" source="GkaKqbV0toeAQ3alkk5x-1" target="Vei8fSmrkZ3CKQq-na2o-1">
          <mxGeometry relative="1" as="geometry" />
        </mxCell>
        <mxCell id="GkaKqbV0toeAQ3alkk5x-4" style="edgeStyle=orthogonalEdgeStyle;rounded=0;orthogonalLoop=1;jettySize=auto;html=1;exitX=0.5;exitY=1;exitDx=0;exitDy=0;entryX=0.5;entryY=0;entryDx=0;entryDy=0;" edge="1" parent="1" source="GkaKqbV0toeAQ3alkk5x-1" target="Vei8fSmrkZ3CKQq-na2o-2">
          <mxGeometry relative="1" as="geometry" />
        </mxCell>
        <mxCell id="GkaKqbV0toeAQ3alkk5x-5" style="edgeStyle=orthogonalEdgeStyle;rounded=0;orthogonalLoop=1;jettySize=auto;html=1;exitX=0.75;exitY=1;exitDx=0;exitDy=0;" edge="1" parent="1" source="GkaKqbV0toeAQ3alkk5x-1" target="Vei8fSmrkZ3CKQq-na2o-3">
          <mxGeometry relative="1" as="geometry" />
        </mxCell>
        <mxCell id="GkaKqbV0toeAQ3alkk5x-1" value="&lt;font style=&quot;font-size: 36px;&quot;&gt;LOGIN&lt;/font&gt;" style="rounded=0;whiteSpace=wrap;html=1;" vertex="1" parent="1">
          <mxGeometry x="1525" y="475" width="710" height="150" as="geometry" />
        </mxCell>
        <mxCell id="GkaKqbV0toeAQ3alkk5x-6" value="&lt;font style=&quot;font-size: 36px;&quot;&gt;USER FE, BE and Services&lt;/font&gt;" style="rounded=0;whiteSpace=wrap;html=1;" vertex="1" parent="1">
          <mxGeometry x="573" y="1220" width="260" height="160" as="geometry" />
        </mxCell>
        <mxCell id="GkaKqbV0toeAQ3alkk5x-7" value="&lt;span style=&quot;font-size: 36px;&quot;&gt;Dwinzo FE, BE and Services&lt;/span&gt;" style="rounded=0;whiteSpace=wrap;html=1;" vertex="1" parent="1">
          <mxGeometry x="1160" y="1220" width="260" height="160" as="geometry" />
        </mxCell>
        <mxCell id="GkaKqbV0toeAQ3alkk5x-8" value="&lt;span style=&quot;font-size: 36px;&quot;&gt;ORG FE, BE and Services&lt;/span&gt;" style="rounded=0;whiteSpace=wrap;html=1;" vertex="1" parent="1">
          <mxGeometry x="870" y="1220" width="260" height="160" as="geometry" />
        </mxCell>
        <mxCell id="GkaKqbV0toeAQ3alkk5x-9" value="&lt;font style=&quot;font-size: 36px;&quot;&gt;NO OF IoT SERVERS&lt;/font&gt;" style="rounded=0;whiteSpace=wrap;html=1;" vertex="1" parent="1">
          <mxGeometry x="1450" y="1220" width="870" height="160" as="geometry" />
        </mxCell>
        <mxCell id="GkaKqbV0toeAQ3alkk5x-10" value="&lt;span style=&quot;font-size: 36px;&quot;&gt;ASSET MAN FE, BE and Services&lt;/span&gt;" style="rounded=0;whiteSpace=wrap;html=1;" vertex="1" parent="1">
          <mxGeometry x="2350" y="1230" width="890" height="150" as="geometry" />
        </mxCell>
        <mxCell id="GkaKqbV0toeAQ3alkk5x-11" value="&lt;span style=&quot;font-size: 36px;&quot;&gt;SOME RESOURCES OR SERVICES THAT WILL BE COMMONLY SHARED AMONG THE APPLICAONS (E.G. 3D ASSETS)&lt;/span&gt;" style="rounded=0;whiteSpace=wrap;html=1;" vertex="1" parent="1">
          <mxGeometry x="573" y="1440" width="2677" height="230" as="geometry" />
        </mxCell>
      </root>
    </mxGraphModel>
  </diagram>
</mxfile>
